<svg xmlns="http://www.w3.org/2000/svg" viewBox="0 0 233.52 233.52">
  <rect fill="#d97757" width="233.52" height="233.52" rx="46"/>
  <path fill="white" d="M0 116.95c0 64.15 52.06 116.58 116.58 116.58 64.52 0 116.95-52.43 116.95-116.58 0-64.52-52.42-116.95-116.95-116.95-64.52 0-116.58 52.42-116.58 116.95zm23.46 0c0-51.69 41.79-93.48 93.12-93.48 51.69 0 93.12 41.79 93.12 93.48 0 26.03-10.63 49.49-27.86 66.35l0-66.72c0-35.93-29.33-64.89-65.26-64.89-35.93 0-65.26 28.96-65.26 64.89 0 36.29 29.33 65.25 65.26 65.26l0-25.3c-21.99 0-39.59-17.96-39.59-39.96 0-21.63 17.6-39.59 39.59-39.59 22 0 39.59 17.96 39.59 39.59l0 52.06 0 32.63c-11.73 5.5-25.3 8.8-39.59 8.8-51.32 0-93.12-41.79-93.12-93.12z"/>
</svg>
