<?xml version="1.0" encoding="UTF-8"?>
<!DOCTYPE svg PUBLIC "-//W3C//DTD SVG 1.1//EN" "http://www.w3.org/Graphics/SVG/1.1/DTD/svg11.dtd">
<!-- Creator: CorelDRAW -->
<svg xmlns="http://www.w3.org/2000/svg" xml:space="preserve" width="338.209mm" height="338.209mm" version="1.1" style="shape-rendering:geometricPrecision; text-rendering:geometricPrecision; image-rendering:optimizeQuality; fill-rule:evenodd; clip-rule:evenodd"
viewBox="0 0 41580.87 41580.87"
 xmlns:xlink="http://www.w3.org/1999/xlink"
 xmlns:xodm="http://www.corel.com/coreldraw/odm/2003">
 <defs>
  <style type="text/css">
   <![CDATA[
    .fil0 {fill:#DE8A6F;fill-rule:nonzero}
   ]]>
  </style>
 </defs>
 <g id="Layer_x0020_1">
  <metadata id="CorelCorpID_0Corel-Layer"/>
  <path class="fil0" d="M-0 20823.08c0,11423.31 9269.2,20757.79 20757.79,20757.79 11488.59,0 20823.08,-9334.48 20823.08,-20757.79 0,-11488.59 -9334.48,-20823.08 -20823.08,-20823.08 -11488.59,0 -20757.79,9334.48 -20757.79,20823.08zm4177.66 0c0,-9203.93 7441.48,-16645.41 16580.13,-16645.41 9203.93,0 16580.13,7441.48 16580.13,16645.41 0,4634.6 -1893,8812.26 -4960.98,11814.97l0 -11880.26c0,-6397.06 -5222.09,-11553.86 -11619.15,-11553.86 -6397.06,0 -11619.13,5156.81 -11619.13,11553.86 0,6462.34 5222.08,11619.15 11619.13,11619.15l0 -4504.05c-3916.57,0 -7049.82,-3198.53 -7049.82,-7115.1 0,-3851.28 3133.25,-7049.82 7049.82,-7049.82 3916.57,0 7049.82,3198.53 7049.82,7049.82l0 9269.21 0 5809.57c-2088.84,979.14 -4504.05,1566.63 -7049.82,1566.63 -9138.64,0 -16580.13,-7441.48 -16580.13,-16580.13z"/>
 </g>
</svg>
